<svg id="Layer_1" data-name="Layer 1" xmlns="http://www.w3.org/2000/svg" viewBox="0 0 1000 1000"><defs><style>.cls-1{fill:#006bd4;}.cls-2{fill:#ff5a2a;}.cls-3{fill:#fff;}.cls-4{fill:none;}</style></defs><path class="cls-1" d="M225.36,484.15a3.28,3.28,0,0,1,3.28-3.28h28.11a47.52,47.52,0,0,1,23.56,5.79,41.42,41.42,0,0,1,16.19,16.1,49.89,49.89,0,0,1,0,46.77,41.34,41.34,0,0,1-16.19,16,47.72,47.72,0,0,1-23.56,5.76H228.64a3.28,3.28,0,0,1-3.28-3.28ZM256.75,550a22.51,22.51,0,0,0,20.12-11.83,24.66,24.66,0,0,0,3-12,25.88,25.88,0,0,0-3-12.38,22.2,22.2,0,0,0-8.23-8.76,22.45,22.45,0,0,0-11.89-3.19l-8.92.06V550Z"/><path class="cls-1" d="M313.34,484.15a3,3,0,0,1,3.28-3.28h58.26a3,3,0,0,1,3.29,3.28v14.24a3.34,3.34,0,0,1-.84,2.42,3.28,3.28,0,0,1-2.45.86H335.57v15h29.84a3.72,3.72,0,0,1,2.63.89,3.28,3.28,0,0,1,1,2.51v11.77a3.08,3.08,0,0,1-1,2.41,3.76,3.76,0,0,1-2.63.87H335.57v15.41h39.31a4.61,4.61,0,0,1,3.32,1.15,4,4,0,0,1,1.2,3.06v13.38a3.14,3.14,0,0,1-.89,2.35,3.38,3.38,0,0,1-2.45.87H316.62a3.3,3.3,0,0,1-2.41-.84,3.15,3.15,0,0,1-.87-2.38Z"/><path class="cls-1" d="M451.41,550.65a2.35,2.35,0,0,1,.62,1.73V569a2.36,2.36,0,0,1-.62,1.74,2.43,2.43,0,0,1-1.79.62H394.26a2.45,2.45,0,0,1-1.76-.62,2.29,2.29,0,0,1-.65-1.74V483.28a2.37,2.37,0,0,1,.65-1.79,2.45,2.45,0,0,1,1.76-.62h17.65a2.45,2.45,0,0,1,1.76.62,2.33,2.33,0,0,1,.65,1.79V550h35.3A2.43,2.43,0,0,1,451.41,550.65Z"/><path class="cls-2" d="M546.45,517.77a1.73,1.73,0,0,1,.56,1.36,2.68,2.68,0,0,1-.25,1.12l-20.12,49a3,3,0,0,1-1.3,1.49,4,4,0,0,1-2.11.56H511.59a4,4,0,0,1-2.1-.56,3,3,0,0,1-1.3-1.49l-20.12-49a2.68,2.68,0,0,1-.25-1.12,1.77,1.77,0,0,1,.52-1.36,1.88,1.88,0,0,1,1.34-.49h17.39a3.49,3.49,0,0,1,1.89.52,2.42,2.42,0,0,1,1.09,1.46l7.36,24.52,7.31-24.52a2.46,2.46,0,0,1,1.11-1.43,3.39,3.39,0,0,1,1.86-.55h17.4A2,2,0,0,1,546.45,517.77Z"/><path class="cls-1" d="M554.56,484.15a3,3,0,0,1,3.28-3.28h58.27a3,3,0,0,1,3.28,3.28v14.24a3.34,3.34,0,0,1-.84,2.42,3.25,3.25,0,0,1-2.44.86H576.79v15h29.84a3.76,3.76,0,0,1,2.64.89,3.31,3.31,0,0,1,1,2.51v11.77a3.12,3.12,0,0,1-1,2.41,3.8,3.8,0,0,1-2.64.87H576.79v15.41h39.32a4.6,4.6,0,0,1,3.31,1.15,4,4,0,0,1,1.21,3.06v13.38a3.11,3.11,0,0,1-.9,2.35,3.38,3.38,0,0,1-2.45.87H557.84a3.32,3.32,0,0,1-2.41-.84,3.15,3.15,0,0,1-.87-2.38Z"/><path class="cls-1" d="M702.79,569a2.38,2.38,0,0,1-2.48,2.42H681.8a3.49,3.49,0,0,1-2.14-.59,6.93,6.93,0,0,1-1.64-2.2l-13.25-25.51h-9.22v25a3.19,3.19,0,0,1-.9,2.41,3.47,3.47,0,0,1-2.51.87H636.29a3.15,3.15,0,0,1-2.38-.87,3.32,3.32,0,0,1-.84-2.41v-84a3.24,3.24,0,0,1,.9-2.35,3.08,3.08,0,0,1,2.32-.93h31.76A35.85,35.85,0,0,1,685,484.74a28,28,0,0,1,11.48,11,32.37,32.37,0,0,1,4.12,16.53,31.31,31.31,0,0,1-3.68,15.23,27.84,27.84,0,0,1-10.31,10.71l15.85,29.41A2.67,2.67,0,0,1,702.79,569Zm-47.24-45.26h11.58a10.57,10.57,0,0,0,5.66-1.54,10.91,10.91,0,0,0,3.93-4.21,12.17,12.17,0,0,0,1.43-5.82,11.27,11.27,0,0,0-1.43-5.67,10.09,10.09,0,0,0-3.93-3.9,11.44,11.44,0,0,0-5.66-1.39H655.55Z"/><path class="cls-1" d="M764,517.77a1.73,1.73,0,0,1,.56,1.36,2.68,2.68,0,0,1-.25,1.12l-20.06,48.91-11,26.44a2.79,2.79,0,0,1-2.84,2H715.78c-2.06,0-3.09-.7-3.09-2.11a5.09,5.09,0,0,1,.43-1.92l11.21-27.73-18.7-45.57a2.68,2.68,0,0,1-.25-1.12,1.74,1.74,0,0,1,.53-1.36,1.85,1.85,0,0,1,1.33-.49h17.4a3.45,3.45,0,0,1,1.88.52,2.42,2.42,0,0,1,1.09,1.46L735,543.78l7.3-24.52a2.51,2.51,0,0,1,1.12-1.43,3.34,3.34,0,0,1,1.85-.55h17.4A2,2,0,0,1,764,517.77Z"/><path class="cls-1" d="M817.64,522Q823,528.61,823,541.3V569a2,2,0,0,1-2.29,2.3h-16.1a2,2,0,0,1-2.29-2.3V541.11a5.51,5.51,0,0,0-1.92-4.3,6.57,6.57,0,0,0-4.52-1.7,6.92,6.92,0,0,0-5,2,7.13,7.13,0,0,0-2,5.38l-.06-.12V569c0,1.53-.72,2.3-2.17,2.3H770.37a2,2,0,0,1-2.29-2.3V519.44a2.21,2.21,0,0,1,.65-1.67,2.37,2.37,0,0,1,1.7-.62h12.88a2.66,2.66,0,0,1,1.33.34,2,2,0,0,1,.84,1l1,3.41A20.6,20.6,0,0,1,793.4,517a20.31,20.31,0,0,1,8.24-1.71Q812.29,515.29,817.64,522Z"/><rect class="cls-2" x="459.37" y="518.06" width="22.19" height="53.89" rx="2.07"/><polygon class="cls-1" points="225.36 586.4 688.37 588.89 225.36 610.77 225.36 586.4"/><polygon class="cls-1" points="816 500.12 816 484.18 706.68 500.12 816 500.12"/><path class="cls-2" d="M543.31,485.26,543,485h0a15.3,15.3,0,0,0-2.12-2h0l-.31-.24,0,0-.3-.21,0,0-.31-.21,0,0-.34-.21h0a15.78,15.78,0,0,0-1.46-.79l-.06,0-.31-.14-.05,0h.18l.38,0,.21,0,.24,0,.22,0,.2,0,.23,0,.16,0,.88.12h.07l.29,0h.06l1.21.21c1.65.31,2.81.61,3.21.68,1.9.34.93-1.66.93-1.66a20.8,20.8,0,0,0-12-8.17l-.09,0-.07,0h0q-.93-.15-1.8-.24h0l.35,0h.12l.29,0H533l.28,0h.11l.3,0h.1l.27,0h1.67c-3-11.56-17.48-28-19.54-31.11a4.32,4.32,0,0,0-1.15-1.18,16.56,16.56,0,0,0,1.68.24h0q.5,0,1,.06h1.88l.5,0a29.81,29.81,0,0,0,.23-14.22,17.47,17.47,0,0,0-6.63.46h0l-.38.12h0l-.38.14h0l-.22.08,1-2.6-5.18-1.95c.11-1,.21-1.86.27-2.33a3.26,3.26,0,0,0-.8-3.08v-.26c0-2.76-.66-5-1.48-5s-1.48,2.24-1.48,5,.66,5,1.48,5,1.3-1.69,1.45-3.94a3.28,3.28,0,0,1,.3,2.21c-.07.45-.16,1.22-.26,2.21l-.2-.08-1.62,2.85-.53.93-1.41,2.47-.32.56-2.76,4.86c-.55-.06-1.16-.09-1.8-.11a1.87,1.87,0,0,0-3.52-.06l-4.09.13h0A1.53,1.53,0,0,0,490.5,435a1.54,1.54,0,0,0,1.16,1.54h0l.23,0a1.06,1.06,0,0,0,.31,0l3.84-.1a1.91,1.91,0,0,0,1.52.85,2.06,2.06,0,0,0,1.82-1.37l.31,0a3.31,3.31,0,0,1,2.2.46l1.93,5.4a16.32,16.32,0,0,0,1.85,5c1.48,2.94,7.35,12.44,7.7,20.71,0,.19,0,.37,0,.55v.25c0,.19,0,.37,0,.56a16.79,16.79,0,0,1-.82,4.57c0,.14-.09.28-.13.42l-.09.26c0,.12-.09.24-.14.37a2.6,2.6,0,0,1-.1.25c0,.11-.09.22-.13.32h0c0,.08-.07.16-.1.25s-.15.34-.23.5h0l-.12.25-.18.37h0l-.12.24-.18.34h0l-.13.24h0l-.18.34h0l-.13.23h0c-.07.14-.15.27-.23.41s-.09.16-.14.24h0a3.45,3.45,0,0,1-.2.32h0l-.15.22c-.07.12-.15.23-.22.34h0l-.15.22-.24.36-.15.22h0a3.71,3.71,0,0,1-.23.32h0c-.06.07-.11.15-.16.22h0l-.27.37h0l-.16.21h0l-.21.27h0l-.17.21h0l-.24.3h0l-.17.21h0c0,.06-.1.13-.16.19h0l-.18.2-.14.16h0c-.84.95-1.41,1.48-1.41,1.48l0,0h0c-.12.11-.56.47-1.21.94h0l-.34.25c-1.79,1.26-4.79,3.06-7.3,3.06a4.41,4.41,0,0,1-.52,0c-1.34-.14-3.89-.27-6.68-.73l-.53-.09-.17,0-.38-.07-.2,0-.36-.07-.21-.05-.35-.08-.21,0-.36-.09-.19-.05-.39-.1-.17-.05-.43-.13-.12,0-.52-.17-.05,0c-.36-.12-.72-.25-1.07-.39h0l-.07,0-.44-.19-.12,0-.4-.19-.12-.06-.38-.19-.12-.07a3.59,3.59,0,0,1-.38-.21l-.1-.06a4.11,4.11,0,0,1-.39-.24l-.07,0c-.15-.09-.29-.19-.43-.29l-.12-.09-.26-.2-.09-.08c-.12-.09-.23-.19-.33-.28l-.08-.07-.24-.24-.1-.1-.22-.23-.08-.09c-.09-.11-.19-.22-.27-.34l-.05-.06-.21-.29a.83.83,0,0,0-.08-.12c-.05-.08-.11-.17-.16-.27l-.07-.11c-.07-.12-.14-.25-.2-.38l0-.06-.15-.34-.06-.13c0-.11-.07-.21-.11-.31l0-.13c-.05-.14-.09-.29-.13-.44v0a3.15,3.15,0,0,1-.09-.42l0-.15c0-.11,0-.23,0-.35a.68.68,0,0,1,0-.14c0-.17,0-.33,0-.5a33.09,33.09,0,0,1,1.41-10.18c.07-.27.14-.52.2-.77l0-.06c0-.06,0-.12,0-.18l0-.1a.94.94,0,0,0,0-.16s0-.08,0-.12l0-.14,0-.1a5.82,5.82,0,0,0,1,.08h.4a4.71,4.71,0,0,0,2-.54,3.42,3.42,0,0,0,1.6-1.85l.09-.28,0-.1a1.17,1.17,0,0,1,.05-.2.69.69,0,0,0,0-.13,1.62,1.62,0,0,0,0-.19.77.77,0,0,0,0-.15l0-.19c0-.05,0-.1,0-.16a1.23,1.23,0,0,0,0-.19c0-.06,0-.11,0-.17s0-.13,0-.19v-.39a15.57,15.57,0,0,0-1.47-6.19l-.07-.14c0-.05-.05-.11-.08-.17l-.09-.16a1.59,1.59,0,0,0-.13-.22l-.09-.16-.08-.13-.11-.16-.09-.13a2.43,2.43,0,0,0-.14-.2l-.07-.09-.13-.15-.06-.07-.19-.2a.12.12,0,0,1-.05-.05l-.15-.14-.06,0a1.3,1.3,0,0,0-.2-.15l0,0-.17-.1-.06,0-.21-.09a4.37,4.37,0,0,0-.71-.19l-.83-.14c-1.13-.17-2.72-.32-4.62-.46h0l-.75-.06h0c-2.78-.19-6.16-.34-9.74-.46h0l-.67,0h0c-1.48-.05-3-.09-4.51-.12h0l-.62,0h0l-1.42,0V422.29h.59v-6.13H441.17v-.51h-2.09v.51H421.45v6.13H422v29.95h.72v0a.66.66,0,0,0,0,.14.73.73,0,0,0,.73.72h0l4.18,0,5.94,8.2c-.94.62-1.94,1.31-3,2.05a16.15,16.15,0,0,0-2.41.05,5.12,5.12,0,0,0-1.62.6,11,11,0,0,0-3.49,2.75c-2.49,2.46-4.61,5.5-4.69,6.37a.78.78,0,0,0,.05.46c-1.55,1.58-2.51,2.8-2.47,3.33.07,1,4,3.83,10.87,7l-.28.27,0,0c-.21.21-.42.42-.62.65l0,0-.27.3,0,0-.25.3,0,0a15.67,15.67,0,1,0,27.57,13.14c0-.14,0-.27.08-.41h0c0-.13.05-.26.07-.39v0c0-.13,0-.25.05-.37a.13.13,0,0,0,0-.06c0-.12,0-.23,0-.35a.17.17,0,0,0,0-.07l0-.33a.34.34,0,0,0,0-.1c0-.1,0-.21,0-.31a.45.45,0,0,0,0-.11c0-.08,0-.15,0-.23l2.84-1.1c4.64,5.61,17.31,9.7,21.06,7.08,3.4-2.37,10.4-3.2,13.38-3.45,5.74,0,10.77,0,12.29.17a19.74,19.74,0,0,0,7.11-.57l.55-.16.12,0a4.56,4.56,0,0,0,.52-.18l.07,0,.45-.19.1,0,.46-.24.09-.05.39-.24.07,0,.42-.29.09-.07.38-.3,0,0a8.12,8.12,0,0,0,2-1.81c0,.31,0,.63,0,.95s0,.35,0,.52,0,.09,0,.14,0,.32,0,.47a.09.09,0,0,1,0,.05c0,.18,0,.35,0,.53a.28.28,0,0,0,0,.09c0,.16,0,.33.06.49v0c0,.18.06.37.1.55v0c0,.18.07.36.11.54a15.67,15.67,0,1,0,27.27-13.53ZM428.73,453.11c1.83,0,3.82,0,5.67,0l-.06.05,0,.05a1.37,1.37,0,0,0-.18.16l0,0-.17.2h0c-1.52,2,0,5.34,2.35,5.86l.28,0c-.67.36-1.41.8-2.2,1.29ZM438,506a10,10,0,0,1-10-10,9.77,9.77,0,0,1,.77-3.83.14.14,0,0,1,0-.06,6.52,6.52,0,0,1,.29-.73h.06a2.37,2.37,0,0,1,.19-.35h-.07a9.26,9.26,0,0,1,.6-1l.06.1a3.55,3.55,0,0,1,.23-.31l-.06-.1.08-.12a8.15,8.15,0,0,1,.78-.89l.16.06.29-.27-.17-.06a9.41,9.41,0,0,1,.92-.75l0,.19.31-.21,0-.19a10.12,10.12,0,0,1,1.16-.65l.15.13A9.82,9.82,0,0,1,438,486a10,10,0,0,1,0,20Zm93,0a10,10,0,0,1-1.52-19.88h0c.32-.06.64-.11,1-.14l0,0h.4l0-.05.44,0c.25,0,.5,0,.75,0l-.05.08.37.05.06-.1a10.89,10.89,0,0,1,1.29.25l0,.15.38.11,0-.15a8.78,8.78,0,0,1,1.11.43l-.12.1.34.16.12-.1a9.27,9.27,0,0,1,1.14.68l0,.15a3.55,3.55,0,0,1,.31.23l0-.15a8.39,8.39,0,0,1,.9.78l-.12,0,.28.27.1,0a9.21,9.21,0,0,1,.84,1l0,.06a3.55,3.55,0,0,1,.23.31l0-.05a10.33,10.33,0,0,1,.54,1,.43.43,0,0,0,0,.07A10,10,0,0,1,531,506Z"/><path class="cls-3" d="M429.36,496.64l-.93.77a.43.43,0,0,1,0-.05c0-.07,0-.15-.05-.22a2.23,2.23,0,0,0,0-.23l0-.17c0-.12,0-.26,0-.39a.37.37,0,0,1,0-.11Z"/><path class="cls-3" d="M429.41,493.74l-1.13.41s0-.08,0-.11a1.57,1.57,0,0,1,0-.23l0-.17a2.56,2.56,0,0,1,.05-.27v0l.09-.37Z"/><path class="cls-3" d="M430.29,499.38l-.6,1a9.34,9.34,0,0,1-.57-1Z"/><path class="cls-3" d="M430.45,491h-1.12a6.74,6.74,0,0,1,.59-.91Z"/><path class="cls-3" d="M431.12,495.17l-1.45,1.21-1.45-.52a.25.25,0,0,1,0-.08c0-.15,0-.29,0-.44s0-.3,0-.44,0-.11,0-.16,0-.14,0-.21l1.48-.53Z"/><path class="cls-3" d="M431.31,497l-1.27-.46,1.1-.92A7,7,0,0,0,431.31,497Z"/><path class="cls-3" d="M431.43,493.38a6.27,6.27,0,0,0-.27,1.37l-1.06-.89Z"/><path class="cls-3" d="M431.57,493l-1.78.64-1.18-1c.05-.15.1-.3.16-.44a.14.14,0,0,1,0-.06,7,7,0,0,1,.35-.73h1.52Z"/><path class="cls-3" d="M432.12,501.64l-.21,1.19a11.45,11.45,0,0,1-.9-.78Z"/><path class="cls-3" d="M432.32,491.39l0,.29h0a8.16,8.16,0,0,0-.53.9l-.69-1.2Z"/><path class="cls-3" d="M432.36,488.85l-1-.36c.25-.22.51-.42.78-.62Z"/><path class="cls-3" d="M432.51,499.47l-.32,1.77-1.45.53a9,9,0,0,1-.83-1l.79-1.37h1.74Z"/><path class="cls-3" d="M432.6,490.22a4.77,4.77,0,0,0-.15.54l0,.13,0,.15h-1.53l-.7-1.22a8.66,8.66,0,0,1,1-1.05l1.32.48Z"/><path class="cls-3" d="M432.93,489.43l-.09.17,0-.22Z"/><path class="cls-3" d="M433.74,500.68l-1.17.42.23-1.28A7,7,0,0,0,433.74,500.68Z"/><path class="cls-3" d="M434.29,487.39a9.38,9.38,0,0,0-1.21,1.72l-.35-.12-.24-1.33a8.37,8.37,0,0,1,1.28-.71Z"/><path class="cls-3" d="M434.53,502.74l-1.17,1a9.33,9.33,0,0,1-1.14-.69l.28-1.55,1.59-.58.14.09Z"/><path class="cls-3" d="M434.81,504.33a10.62,10.62,0,0,1-1.11-.43l.9-.76Z"/><path class="cls-3" d="M435.77,501.7l-.93.78-.21-1.25A6.35,6.35,0,0,0,435.77,501.7Z"/><path class="cls-3" d="M436.35,489.12l-.58.13.3-.36Z"/><path class="cls-3" d="M437.14,488.07l-.49.85-.34-.29A8.82,8.82,0,0,1,437,488Z"/><path class="cls-3" d="M437.25,503.34l-.77,1.34a8.07,8.07,0,0,1-1.3-.25l-.27-1.55,1.28-1.08.2,0Z"/><path class="cls-3" d="M438.05,504.74h-.44l-.75,0,.59-1Z"/><path class="cls-3" d="M438.05,501.94l-.6,1.05-.62-1.08a6.53,6.53,0,0,0,.78,0Z"/><path class="cls-3" d="M438.54,489.05h-.24c-.23,0-.46,0-.69,0h-.15l-.47,0,.49-.85.71.24Z"/><path class="cls-3" d="M439.17,488.76l-.26.22-.22-.38Z"/><path class="cls-3" d="M440,489l-.15.12-.47-.06.22-.19Z"/><path class="cls-3" d="M440,503l-.27,1.52a9.27,9.27,0,0,1-1.3.21l-.79-1.37.83-1.44.21,0Z"/><path class="cls-3" d="M440.27,501.45l-.19,1.14-1-.81a6.77,6.77,0,0,0,.8-.25Z"/><path class="cls-3" d="M441.24,504a10.58,10.58,0,0,1-1.12.39l.2-1.17Z"/><path class="cls-3" d="M442.41,501.3l-.88-.32a5.48,5.48,0,0,0,.74-.43Z"/><path class="cls-3" d="M444,502.26a8.27,8.27,0,0,1-.92.74l-.2-1.16Z"/><path class="cls-3" d="M445.13,501a10.1,10.1,0,0,1-.86,1l-1.49-.55-.2-1.12a6.07,6.07,0,0,0,.65-.59l.07.11.48-.19h.58Z"/><path class="cls-3" d="M446,499.66a10.66,10.66,0,0,1-.62,1l-.59-1Z"/><path class="cls-3" d="M446.42,498.63c-.08.23-.18.46-.28.68h-1.46Z"/><path class="cls-3" d="M523.08,496.64l-.92.77s0,0,0-.05,0-.15,0-.22a1.57,1.57,0,0,1,0-.23l0-.16c0-.13,0-.27,0-.4s0-.07,0-.11Z"/><path class="cls-3" d="M523.13,493.74l-1.13.41s0-.08,0-.11l0-.23,0-.17a2.56,2.56,0,0,0,0-.27v0c0-.12.05-.25.09-.37Z"/><path class="cls-3" d="M524,499.38l-.6,1a9.4,9.4,0,0,1-.58-1Z"/><path class="cls-3" d="M524.18,491H523a9.34,9.34,0,0,1,.61-1Z"/><path class="cls-3" d="M524.84,495.17l-1.45,1.21-1.45-.52v-.08c0-.15,0-.29,0-.44s0-.3,0-.44a.81.81,0,0,1,0-.16c0-.07,0-.14,0-.21l1.49-.53Z"/><path class="cls-3" d="M525,497l-1.27-.46,1.1-.92A6.36,6.36,0,0,0,525,497Z"/><path class="cls-3" d="M525.16,493.38a6.27,6.27,0,0,0-.27,1.37l-1.06-.89Z"/><path class="cls-3" d="M525.16,497.42l-.94,1.61h-1.54c-.09-.21-.17-.42-.24-.64h0c-.06-.2-.13-.41-.18-.61l1.21-1,1.69.61A0,0,0,0,0,525.16,497.42Z"/><path class="cls-3" d="M525.3,493l-1.79.64-1.18-1a9.21,9.21,0,0,1,.48-1.23h1.57Z"/><path class="cls-3" d="M525.84,501.64l-.21,1.19q-.46-.37-.9-.78Z"/><path class="cls-3" d="M525.92,499h-1.29l.68-1.17A7.22,7.22,0,0,0,525.92,499Z"/><path class="cls-3" d="M526.23,491.39a5.83,5.83,0,0,0-.75,1.19l-.7-1.2Z"/><path class="cls-3" d="M526.23,499.47l-.32,1.77-1.44.53a10.35,10.35,0,0,1-.84-1l.8-1.37h1.73Z"/><path class="cls-3" d="M526.48,491h-1.9l-.77-1.32.09-.12a8,8,0,0,1,.77-.89l1.48.54Z"/><path class="cls-3" d="M527.46,500.68l-1.16.42.23-1.28A6.92,6.92,0,0,0,527.46,500.68Z"/><path class="cls-3" d="M528,489.9a6.69,6.69,0,0,0-1.17.89l-.25-1.41Z"/><path class="cls-3" d="M528.26,502.74l-1.18,1a10,10,0,0,1-1.13-.69l.27-1.55,1.59-.58.15.09Z"/><path class="cls-3" d="M528.53,504.33a10.62,10.62,0,0,1-1.11-.43l.91-.76Z"/><path class="cls-3" d="M528.55,487.84l-.31,1.8-1.78-.65-.27-1.52a9.34,9.34,0,0,1,1.16-.65Z"/><path class="cls-3" d="M528.82,486.28l-.2,1.16-.92-.78A8.68,8.68,0,0,1,528.82,486.28Z"/><path class="cls-3" d="M529.5,501.7l-.93.78-.22-1.25A6.45,6.45,0,0,0,529.5,501.7Z"/><path class="cls-3" d="M530.07,489.12a6,6,0,0,0-1.46.45l.25-1.47Z"/><path class="cls-3" d="M531,503.34l-.77,1.34a7.86,7.86,0,0,1-1.3-.25l-.27-1.55,1.27-1.08.21,0Z"/><path class="cls-3" d="M531.29,487.34l-.91,1.58-1.45-1.22.27-1.52.28-.06h0c.32-.05.65-.08,1-.1Z"/><path class="cls-3" d="M531.78,504.74h-.45c-.25,0-.5,0-.74,0l.59-1Z"/><path class="cls-3" d="M531.78,501.94l-.6,1.05-.62-1.08a6.49,6.49,0,0,0,.77,0Z"/><path class="cls-3" d="M532,486.05l-.54.94-.57-1H531C531.35,486,531.69,486,532,486.05Z"/><path class="cls-3" d="M532.29,489.09a7.48,7.48,0,0,0-1-.07h-.14l-.48,0,.78-1.35Z"/><path class="cls-3" d="M533.73,503l-.26,1.52a9.41,9.41,0,0,1-1.31.21l-.78-1.37.83-1.44.2,0Z"/><path class="cls-3" d="M534,501.38l-.21,1.21-.95-.81A6.62,6.62,0,0,0,534,501.38Z"/><path class="cls-3" d="M534,487.81,532.63,489l-.94-1.64.71-1.24a8.08,8.08,0,0,1,1.38.3Z"/><path class="cls-3" d="M534.37,489.78a6.23,6.23,0,0,0-1.47-.57l1.19-1Z"/><path class="cls-3" d="M535,504a8.87,8.87,0,0,1-1.13.39l.2-1.17Z"/><path class="cls-3" d="M535.12,486.89l-.79.66-.17-1A10.09,10.09,0,0,1,535.12,486.89Z"/><path class="cls-3" d="M536.13,501.3l-1.2-.43a6.91,6.91,0,0,0,1-.81Z"/><path class="cls-3" d="M536.37,489.58l-.28,1.53a6.64,6.64,0,0,0-1.17-1Z"/><path class="cls-3" d="M536.47,503.22a8.63,8.63,0,0,1-1.15.64l-1.21-1,.29-1.66.16-.09,1.64.6Z"/><path class="cls-3" d="M536.69,487.78l-.25,1.4-1.71.63L534.4,488l1.06-.9A9.48,9.48,0,0,1,536.69,487.78Z"/><path class="cls-3" d="M537.71,502.26a9.31,9.31,0,0,1-.92.74l-.21-1.16Z"/><path class="cls-3" d="M537.81,488.68l-1,.36.18-1A8.73,8.73,0,0,1,537.81,488.68Z"/><path class="cls-3" d="M537.88,499.3h-1.32a6.07,6.07,0,0,0,.66-1.13Z"/><path class="cls-3" d="M538,491.65l-.75,1.3a6.85,6.85,0,0,0-.74-1.29Z"/><path class="cls-3" d="M538.84,496.82l-1.3.47a6,6,0,0,0,.24-1.35Z"/><path class="cls-3" d="M538.86,501a11.75,11.75,0,0,1-.87,1l-1.48-.55-.3-1.7.08-.09h1.79Z"/><path class="cls-3" d="M538.89,494.17l-1.1.92a6.5,6.5,0,0,0-.25-1.41Z"/><path class="cls-4" d="M539,490a8.92,8.92,0,0,0-.9-1.05"/><path class="cls-3" d="M539.69,499.66a10.57,10.57,0,0,1-.61,1l-.59-1Z"/><path class="cls-3" d="M539.83,491.3h-1.19l.58-1a8.77,8.77,0,0,1,.57.92A.43.43,0,0,0,539.83,491.3Z"/><path class="cls-3" d="M540.33,498.08a8,8,0,0,1-.47,1.23h-1.58l-.89-1.54,0-.05,1.74-.63Z"/><path class="cls-3" d="M540.42,492.89l-1.22,1-1.71-.62,1-1.64H540A10.68,10.68,0,0,1,540.42,492.89Z"/><path class="cls-3" d="M540.66,496.54a9,9,0,0,1-.22,1.17l-.91-.76Z"/><path class="cls-3" d="M540.7,494.45l-1.12-.4.93-.78A11.6,11.6,0,0,1,540.7,494.45Z"/><path class="cls-3" d="M540.74,495.34a7.09,7.09,0,0,1,0,.81l-1.48.54-1.4-1.17,1.45-1.22,1.45.53C540.73,495,540.74,495.17,540.74,495.34Z"/></svg>